<?xml version="1.0" standalone="no"?>
<!DOCTYPE svg PUBLIC "-//W3C//DTD SVG 20010904//EN"
 "http://www.w3.org/TR/2001/REC-SVG-20010904/DTD/svg10.dtd">
<svg version="1.0" xmlns="http://www.w3.org/2000/svg"
 width="200.000000pt" height="200.000000pt" viewBox="0 0 200.000000 200.000000"
 preserveAspectRatio="xMidYMid meet">
<metadata>
Created by potrace 1.14, written by Peter Selinger 2001-2017
</metadata>
<g transform="translate(0.000000,200.000000) scale(0.100000,-0.100000)"
fill="#000000" stroke="none">
<path d="M482 1644 c-38 -20 -62 -60 -62 -104 0 -18 38 -121 85 -229 47 -109
85 -203 85 -209 0 -6 -51 -45 -114 -86 -63 -41 -120 -84 -127 -97 -19 -37 -16
-95 7 -126 25 -33 83 -58 117 -50 36 10 318 194 355 232 23 25 32 44 32 69 0
48 -212 542 -249 579 -34 35 -85 43 -129 21z"/>
<path d="M896 1649 c-60 -17 -102 -83 -87 -136 21 -74 136 -321 161 -347 19
-20 40 -30 71 -33 43 -5 53 1 299 155 261 163 300 196 300 251 0 66 -79 130
-143 117 -17 -3 -108 -56 -204 -116 -95 -61 -177 -110 -181 -110 -4 0 -25 41
-46 91 -50 114 -96 150 -170 128z"/>
<path d="M1465 1219 c-48 -25 -166 -102 -186 -121 -8 -7 -20 -14 -28 -16 -18
-4 -124 -76 -141 -97 -22 -27 -21 -94 3 -140 12 -22 20 -43 19 -47 -4 -15 19
-8 24 7 4 8 12 15 20 15 8 0 14 5 14 12 0 6 3 9 6 6 3 -3 1 -14 -5 -25 -5 -10
-12 -26 -15 -35 -3 -10 -11 -18 -17 -18 -8 0 -8 4 1 15 7 9 11 18 8 20 -3 3
-10 -1 -16 -8 -9 -10 -3 -32 22 -90 18 -42 36 -73 41 -69 4 4 6 0 5 -8 -4 -26
0 -40 10 -40 6 0 10 7 10 16 0 9 -5 12 -12 8 -7 -4 -8 -3 -4 5 4 6 2 19 -6 28
-9 12 -10 15 0 9 8 -5 16 1 22 16 11 23 11 23 6 1 -2 -13 1 -23 7 -23 8 0 8
-3 -1 -8 -9 -7 -10 -16 -1 -41 6 -17 9 -45 5 -61 -6 -32 9 -42 17 -12 4 15 5
15 6 0 0 -9 -3 -20 -9 -23 -6 -4 -3 -20 9 -43 10 -20 26 -61 36 -90 26 -72 63
-105 120 -108 39 -2 52 2 80 28 31 27 34 34 32 77 -4 57 -45 164 -60 154 -6
-3 -7 -1 -3 5 3 6 -19 71 -50 144 -30 73 -64 153 -74 178 -12 27 -20 37 -20
25 0 -17 -2 -17 -10 -5 -9 13 -11 13 -20 0 -5 -8 -7 -24 -4 -35 4 -16 0 -21
-15 -21 -16 0 -21 7 -21 26 0 20 2 22 11 10 8 -12 9 -8 5 15 -3 17 -3 24 0 17
3 -6 10 -9 15 -6 6 3 5 11 -2 20 -9 11 -8 14 4 14 8 0 17 -6 20 -12 3 -9 11
-7 27 7 14 12 20 14 15 5 -6 -12 -5 -12 5 -3 17 16 4 32 -23 26 -18 -3 -16 -1
8 13 17 10 36 17 43 16 6 -2 12 2 12 8 0 5 5 10 10 10 6 0 10 -7 10 -17 0 -9
-3 -13 -6 -10 -9 9 -46 -12 -39 -23 6 -10 201 113 227 144 18 22 25 72 9 61
-5 -3 -13 -1 -16 5 -4 6 -1 9 6 8 26 -6 19 30 -12 60 -18 18 -36 32 -41 32
-13 0 -9 -18 5 -22 6 -3 -2 -5 -20 -5 -27 0 -29 2 -17 14 8 8 14 16 14 19 0
11 -39 2 -75 -17z m39 -4 c-10 -8 -23 -15 -28 -15 -6 0 -1 7 10 15 10 8 23 15
28 15 6 0 1 -7 -10 -15z m-68 -50 c1 -8 -4 -12 -14 -8 -15 4 -14 3 1 -10 13
-11 14 -16 5 -20 -22 -8 -58 -3 -56 8 1 6 9 9 17 7 9 -2 12 2 8 12 -4 9 1 19
11 25 19 10 25 7 28 -14z m-98 -45 c-7 -10 -14 -17 -17 -15 -4 4 18 35 25 35
2 0 -1 -9 -8 -20z m102 -20 c0 -5 -5 -10 -11 -10 -5 0 -7 5 -4 10 3 6 8 10 11
10 2 0 4 -4 4 -10z m-112 -32 c-13 -10 -31 -18 -40 -19 -10 -1 -23 -2 -30 -3
-6 -1 -13 5 -16 12 -3 10 4 12 32 7 36 -7 54 9 19 18 -10 2 -1 4 20 3 l38 0
-23 -18z m27 -17 c-3 -6 -11 -11 -16 -11 -5 0 -4 6 3 14 14 16 24 13 13 -3z
m-151 -21 c-2 -11 -6 -30 -9 -41 -6 -30 -7 -30 -34 -10 -20 15 -21 19 -7 24 9
4 15 2 13 -5 -1 -6 3 -12 8 -14 6 -2 11 5 12 16 1 11 -3 20 -10 20 -6 0 -2 7
9 15 24 18 24 19 18 -5z m262 1 c-3 -5 6 -12 20 -15 15 -4 24 -9 22 -12 -8 -8
-68 18 -62 27 3 5 10 9 15 9 6 0 8 -4 5 -9z m58 -6 c11 -8 16 -15 10 -15 -5 0
-18 7 -28 15 -11 8 -16 15 -10 15 5 0 18 -7 28 -15z m-403 -58 c-10 -9 -11 -8
-5 6 3 10 9 15 12 12 3 -3 0 -11 -7 -18z m191 -23 c-13 -9 -26 -13 -30 -9 -8
8 17 25 38 25 9 0 6 -6 -8 -16z m-167 -24 c3 -5 1 -10 -4 -10 -6 0 -11 5 -11
10 0 6 2 10 4 10 3 0 8 -4 11 -10z m12 -46 c-3 -3 -12 -4 -19 -1 -8 3 -5 6 6
6 11 1 17 -2 13 -5z m-7 -34 c13 -8 13 -10 -2 -10 -9 0 -20 5 -23 10 -8 13 5
13 25 0z m219 -45 c0 -5 -6 -1 -14 9 -8 11 -15 24 -15 30 0 5 7 1 15 -10 8
-10 14 -23 14 -29z m-35 20 c3 -8 1 -15 -4 -15 -6 0 -10 7 -10 15 0 8 2 15 4
15 2 0 6 -7 10 -15z m43 -72 c-3 -10 -5 -4 -5 12 0 17 2 24 5 18 2 -7 2 -21 0
-30z m-186 -2 c6 10 8 7 6 -8 -1 -17 -4 -19 -14 -11 -7 6 -13 16 -12 22 0 6 3
5 6 -3 5 -11 7 -11 14 0z m169 -1 c0 -5 -5 -10 -11 -10 -5 0 -7 5 -4 10 3 6 8
10 11 10 2 0 4 -4 4 -10z m-80 -30 c0 -5 -4 -10 -10 -10 -5 0 -10 5 -10 10 0
6 5 10 10 10 6 0 10 -4 10 -10z m104 -15 c-9 -14 -18 -25 -20 -25 -2 0 2 11 8
25 6 14 15 25 20 25 5 0 1 -11 -8 -25z m20 -20 c-4 -8 -8 -15 -10 -15 -2 0 -4
7 -4 15 0 8 4 15 10 15 5 0 7 -7 4 -15z m25 -49 c1 -5 -5 -3 -13 4 -8 6 -12
19 -9 27 6 14 8 14 14 -3 4 -10 8 -23 8 -28z m-151 -31 c-3 -3 -9 2 -12 12 -6
14 -5 15 5 6 7 -7 10 -15 7 -18z m169 -7 c-3 -8 -6 -5 -6 6 -1 11 2 17 5 13 3
-3 4 -12 1 -19z m-47 -18 c0 -5 -7 -10 -16 -10 -8 0 -12 5 -9 10 3 6 10 10 16
10 5 0 9 -4 9 -10z m67 -44 c-3 -40 -23 -44 -21 -4 2 46 4 49 14 43 5 -3 9
-21 7 -39z m-147 -55 c0 -5 -7 -11 -14 -14 -10 -4 -13 -1 -9 9 6 15 23 19 23
5z m24 -26 c-4 -22 -2 -41 6 -50 9 -10 9 -15 1 -15 -6 0 -11 5 -11 11 0 5 -4
8 -9 5 -5 -4 -7 4 -3 16 3 14 1 19 -6 14 -6 -4 -4 7 6 23 22 39 24 39 16 -4z
m163 3 c-3 -8 -6 -5 -6 6 -1 11 2 17 5 13 3 -3 4 -12 1 -19z m-7 -98 c0 -5 -4
-10 -10 -10 -5 0 -10 5 -10 10 0 6 5 10 10 10 6 0 10 -4 10 -10z m-58 -54 c15
-3 30 -2 33 4 3 5 12 10 18 10 7 0 3 -7 -7 -15 -11 -8 -14 -15 -7 -15 7 0 9
-5 5 -11 -5 -8 -9 -8 -14 1 -4 7 -13 10 -19 6 -6 -4 -24 0 -41 9 -33 17 -40
29 -12 22 9 -3 29 -8 44 -11z m-32 -28 c0 -5 -9 -4 -20 2 -11 6 -20 12 -20 14
0 2 9 2 20 -1 11 -3 20 -9 20 -15z"/>
<path d="M835 838 c-101 -56 -446 -277 -467 -299 -39 -41 -39 -97 1 -141 26
-29 36 -33 78 -33 43 0 63 9 206 99 87 54 165 99 173 100 9 1 34 -42 67 -116
29 -65 61 -126 71 -137 67 -74 196 -28 196 68 0 52 -160 407 -200 444 -33 29
-87 36 -125 15z"/>
<path d="M1235 570 c-3 -5 -1 -18 4 -27 9 -16 10 -14 11 10 0 28 -5 34 -15 17z"/>
</g>
</svg>
